<svg xmlns="http://www.w3.org/2000/svg" viewBox="0 0 640 360" role="img" aria-label="Sudoku">
  <defs>
    <linearGradient id="bg" x1="0" y1="0" x2="1" y2="1">
      <stop offset="0%" stop-color="#0b6fd8"/>
      <stop offset="100%" stop-color="#22c55e"/>
    </linearGradient>
  </defs>
  <rect width="640" height="360" fill="url(#bg)"/>
  <g transform="translate(174 44)">
    <rect x="0" y="0" width="292" height="292" rx="14" fill="#f0fff8" opacity="0.95"/>
    <g stroke="#14532d" stroke-width="1.4">
      <path d="M32 20V272M64 20V272M96 20V272M128 20V272M160 20V272M192 20V272M224 20V272M256 20V272"/>
      <path d="M20 32H272M20 64H272M20 96H272M20 128H272M20 160H272M20 192H272M20 224H272M20 256H272"/>
      <path d="M20 20H272V272H20Z" stroke-width="3"/>
      <path d="M20 116H272M20 212H272M116 20V272M212 20V272" stroke-width="3"/>
    </g>
    <g fill="#14532d" font-family="Segoe UI, Arial" font-size="24" font-weight="700" text-anchor="middle" dominant-baseline="middle">
      <text x="48" y="48">5</text>
      <text x="80" y="80">7</text>
      <text x="144" y="48">3</text>
      <text x="240" y="48">1</text>
      <text x="48" y="176">9</text>
      <text x="112" y="176">4</text>
      <text x="176" y="176">2</text>
      <text x="240" y="176">6</text>
      <text x="80" y="240">8</text>
      <text x="176" y="240">5</text>
      <text x="240" y="240">9</text>
    </g>
  </g>
  <text x="34" y="325" fill="#f3fff8" font-family="Segoe UI, Arial" font-size="38" font-weight="700">Sudoku</text>
</svg>
